{"title":"Sci.Fi.Science.Physics.of.The.Impossible.07of12.How.to.Build.a.S","uid":5577673,"size":270996722,"categoryP":"video","categoryS":"tv_shows","magnet":"?xt=urn:btih:d0f70680c014901e056529b39fb4093ecad3c8aa&amp;dn=Sci.Fi.Science.Physics.of.The.Impossible.07of12.How.to.Build.a.S&amp;tr=udp%3A%2F%2Ftracker.openbittorrent.com%3A80&amp;tr=udp%3A%2F%2Fopen.demonii.com%3A1337&amp;tr=udp%3A%2F%2Ftracker.coppersurfer.tk%3A6969&amp;tr=udp%3A%2F%2Fexodus.desync.com%3A6969","seeders":0,"leechers":1,"uploader":"itvend","files":1,"time":1274435207,"description":"General\nComplete name                    : Sci.Fi.Science.Physics.of.The.Impossible.07of12.How.to.Build.a.Starship.HDTV.Xvid.Mp3.avi\nFormat                           : AVI\nFormat/Info                      : Audio Video Interleave\nFile size                        : 250 MiB\nDuration                         : 22mn 1s\nOverall bit rate                 : 1 589 Kbps\nWriting application              : Lavf52.32.0\n\nVideo\nID                               : 0\nFormat                           : MPEG-4 Visual\nFormat profile                   : AdvancedSimple@L5\nFormat settings, BVOP            : Yes\nFormat settings, QPel            : No\nFormat settings, GMC             : No warppoints\nFormat settings, Matrix          : Default (H.263)\nMuxing mode                      : Packed bitstream\nCodec ID                         : XVID\nCodec ID/Hint                    : XviD\nDuration                         : 22mn 0s\nBit rate                         : 1 447 Kbps\nWidth                            : 640 pixels\nHeight                           : 480 pixels\nDisplay aspect ratio             : 4:3\nFrame rate                       : 29.970 fps\nResolution                       : 24 bits\nColorimetry                      : 4:2:0\nScan type                        : Progressive\nBits/(Pixel*Frame)               : 0.157\nStream size                      : 228 MiB (91%)\nWriting library                  : XviD 1.2.1 (UTC 2008-12-04)\n\nAudio\nID                               : 1\nFormat                           : MPEG Audio\nFormat version                   : Version 1\nFormat profile                   : Layer 3\nFormat settings, Mode            : Joint stereo / MS Stereo\nCodec ID                         : 55\nCodec ID/Hint                    : MP3\nDuration                         : 22mn 1s\nBit rate mode                    : Constant\nBit rate                         : 128 Kbps\nChannel(s)                       : 2 channels\nSampling rate                    : 48.0 KHz\nResolution                       : 16 bits\nStream size                      : 20.2 MiB (8%)\nAlignment                        : Aligned on interleaves\nInterleave, duration             : 24 ms (0.72 video frame)","torrent":{"xt":"urn:btih:d0f70680c014901e056529b39fb4093ecad3c8aa","amp;dn":"Sci.Fi.Science.Physics.of.The.Impossible.07of12.How.to.Build.a.S","amp;tr":["udp%3A%2F%2Ftracker.openbittorrent.com%3A80","udp%3A%2F%2Fopen.demonii.com%3A1337","udp%3A%2F%2Ftracker.coppersurfer.tk%3A6969","udp%3A%2F%2Fexodus.desync.com%3A6969"],"infoHash":"d0f70680c014901e056529b39fb4093ecad3c8aa","infoHashBuffer":{"type":"Buffer","data":[208,247,6,128,192,20,144,30,5,101,41,179,159,180,9,62,202,211,200,170]},"announce":[],"urlList":[]}}